<?xml version="1.0" encoding="UTF-8"?>
<svg version="1.1" xmlns="http://www.w3.org/2000/svg" width="512" height="512">
<path d="M0 0 C1.01790619 0.00215515 2.03581238 0.0043103 3.08456421 0.00653076 C17.69363523 0.05620146 32.02575853 0.30709809 46.375 3.3125 C47.34985352 3.51117676 48.32470703 3.70985352 49.32910156 3.91455078 C97.55008851 14.00151687 142.14979936 36.03838551 177.54589844 70.53027344 C179.36677762 72.30448833 181.20253929 74.06231514 183.0390625 75.8203125 C190.37611264 82.91917894 196.94536376 90.33067928 203.03955078 98.51953125 C204.40782873 100.35657572 205.79485529 102.17838931 207.18359375 104 C213.54959778 112.42672676 219.18061381 121.12153583 224.375 130.3125 C224.73803223 130.94285156 225.10106445 131.57320312 225.47509766 132.22265625 C247.08503355 169.97093421 256.85198837 212.73995161 256.6875 255.9375 C256.68534485 256.95540619 256.6831897 257.97331238 256.68096924 259.02206421 C256.63129854 273.63113523 256.38040191 287.96325853 253.375 302.3125 C253.07698486 303.77478027 253.07698486 303.77478027 252.77294922 305.26660156 C244.60281954 344.32410539 228.97714583 380.76150319 204.375 412.3125 C203.70210938 413.19679688 203.02921875 414.08109375 202.3359375 414.9921875 C196.77699153 422.15247593 190.62766638 428.76014961 184.375 435.3125 C183.54258789 436.18793457 183.54258789 436.18793457 182.69335938 437.08105469 C175.02106026 445.09970331 167.07231633 452.35038813 158.16796875 458.97705078 C156.33092428 460.34532873 154.50911069 461.73235529 152.6875 463.12109375 C144.26077324 469.48709778 135.56596417 475.11811381 126.375 480.3125 C125.74464844 480.67553223 125.11429687 481.03856445 124.46484375 481.41259766 C98.37837639 496.34644147 69.04173537 505.82455434 39.375 510.3125 C38.25037354 510.48982666 37.12574707 510.66715332 35.96704102 510.84985352 C24.41309556 512.50125708 12.97034453 512.66920897 1.3125 512.625 C0.31643738 512.62317719 -0.67962524 512.62135437 -1.70587158 512.61947632 C-16.21830287 512.57473255 -30.34809519 512.11719043 -44.625 509.3125 C-45.52057617 509.15152832 -46.41615234 508.99055664 -47.33886719 508.82470703 C-77.01629053 503.45553816 -106.94249711 493.03885611 -131.94506836 475.93237305 C-132.69409424 475.44422119 -133.44312012 474.95606934 -134.21484375 474.453125 C-134.85284912 474.01516602 -135.49085449 473.57720703 -136.14819336 473.12597656 C-144.70188326 470.31662272 -155.18678178 475.52093516 -163.3671875 478.23046875 C-164.90038811 478.73111861 -166.43385103 479.23096582 -167.96755981 479.73005676 C-171.99703392 481.04353458 -176.02307321 482.36723715 -180.04840088 483.69335938 C-184.08248527 485.0206793 -188.11940588 486.33930519 -192.15625 487.65820312 C-193.73635764 488.17462404 -195.31645618 488.6910728 -196.89654541 489.20755005 C-198.05431866 489.58597738 -198.05431866 489.58597738 -199.23548126 489.97204971 C-201.53624975 490.7244393 -203.83674076 491.47767126 -206.137146 492.23117065 C-214.16968865 494.86172615 -222.20327034 497.48815322 -230.2578125 500.05078125 C-231.00884247 500.29168991 -231.75987244 500.53259857 -232.53366089 500.7808075 C-237.38552464 502.3125 -237.38552464 502.3125 -239.625 502.3125 C-237.35330138 493.212851 -234.36767884 484.38440594 -231.33808517 475.51718712 C-230.44371328 472.89879251 -229.55377359 470.27892762 -228.66494751 467.65864563 C-226.13979668 460.21722198 -223.60620637 452.77867762 -221.07128906 445.34057617 C-219.51431366 440.77102642 -217.96184214 436.19996578 -216.41197586 431.62800026 C-215.53753575 429.05323075 -214.65778355 426.48031588 -213.77792358 423.90739441 C-213.24146963 422.32597543 -212.7052915 420.74446285 -212.16943359 419.1628418 C-211.8031913 418.0990329 -211.8031913 418.0990329 -211.42955017 417.01373291 C-210.12368962 413.13797023 -209.01128282 409.39302027 -208.625 405.3125 C-209.99003685 402.62841944 -209.99003685 402.62841944 -212.1328125 400.171875 C-235.18887826 370.49257609 -247.7696801 332.01397436 -253.625 295.3125 C-253.90428345 293.57673706 -253.90428345 293.57673706 -254.18920898 291.8059082 C-255.86534055 280.12813786 -255.98217241 268.53240747 -255.9375 256.75 C-255.93426727 255.21939438 -255.93426727 255.21939438 -255.93096924 253.65786743 C-255.88133352 239.03039476 -255.63419712 224.67986162 -252.625 210.3125 C-252.42632324 209.33764648 -252.22764648 208.36279297 -252.02294922 207.35839844 C-241.7272891 158.1397446 -219.29081567 114.71000304 -184.625 78.3125 C-184.05475098 77.71356934 -183.48450195 77.11463867 -182.89697266 76.49755859 C-174.89943802 68.16006957 -166.68545927 60.51490955 -157.40185547 53.63183594 C-155.57021053 52.27181818 -153.75559517 50.89100626 -151.94140625 49.5078125 C-143.51406667 43.1394627 -134.81758485 37.50780214 -125.625 32.3125 C-124.99464844 31.94946777 -124.36429688 31.58643555 -123.71484375 31.21240234 C-85.96656579 9.60246645 -43.19754839 -0.16448837 0 0 Z " fill="#4CAF50" transform="translate(255.625,-0.3125)"/>
<path d="M0 0 C0.9590625 -0.02449219 1.918125 -0.04898438 2.90625 -0.07421875 C3.8446875 -0.07808594 4.783125 -0.08195312 5.75 -0.0859375 C6.59046875 -0.09415527 7.4309375 -0.10237305 8.296875 -0.11083984 C12.05546766 0.56470201 15.04208518 2.01028122 18 4.375 C19.58798226 6.7032363 20.69684971 8.62515798 21.82421875 11.15234375 C22.14976242 11.84134262 22.47530609 12.53034149 22.81071472 13.24021912 C27.49108518 23.31780576 31.62545648 33.64852211 35.8125 43.9375 C37.0819956 47.03961094 38.3531946 50.14102031 39.62443542 53.24241638 C40.40721423 55.1539887 41.18864049 57.06611566 41.96846008 58.97889709 C42.32280624 59.8476799 42.6771524 60.71646271 43.04223633 61.61157227 C43.54166245 62.83676071 43.54166245 62.83676071 44.05117798 64.08670044 C44.91570974 66.17171493 45.81606132 68.23651466 46.72924805 70.30053711 C48.51874868 74.63006286 48.8967936 77.92186618 47.26171875 82.39453125 C44.18423101 88.60546106 39.50285203 93.39029396 34.80078125 98.3828125 C27.59882795 105.86806646 27.59882795 105.86806646 22.6875 114.875 C24.36610495 133.67537542 46.70550039 154.29613321 59 167.375 C59.62132812 168.06207031 60.24265625 168.74914062 60.8828125 169.45703125 C76.28729311 185.86314849 97.05789919 197.46526637 117 207.375 C118.00546875 207.87644531 119.0109375 208.37789062 120.046875 208.89453125 C126.68490176 211.88587134 133.7800051 212.9095436 140.75 210.375 C147.72590614 204.17419455 152.96040152 196.42078863 158.28125 188.82226562 C161.99455425 183.58544062 165.59443718 178.97870854 171 175.375 C183.4926203 173.98693108 194.90919818 181.66828085 205.8125 187 C208.35875741 188.24085395 210.90586106 189.47996381 213.453125 190.71875 C214.08634171 191.02708771 214.71955841 191.33542542 215.3719635 191.65310669 C219.51848203 193.66821171 223.68211096 195.64289697 227.859375 197.59375 C228.91020264 198.08665527 229.96103027 198.57956055 231.04370117 199.08740234 C233.00682846 200.00601573 234.97299847 200.918164 236.94262695 201.82275391 C245.85448161 206.01030124 245.85448161 206.01030124 248 209.375 C248.35183877 212.21654535 248.47573877 214.61185508 248.375 217.4375 C248.35848389 218.19901367 248.34196777 218.96052734 248.32495117 219.74511719 C247.85383694 235.03447391 243.91931241 249.20621296 233 260.375 C215.55858016 276.55169631 194.77526218 283.22627092 171.43359375 282.50683594 C165.15070524 282.16647079 159.08937136 280.89941405 153 279.375 C151.83742676 279.08496094 151.83742676 279.08496094 150.65136719 278.7890625 C112.34973288 268.98287561 76.80611766 252.17573013 46 227.375 C45.00742188 226.58867187 44.01484375 225.80234375 42.9921875 224.9921875 C34.37662974 217.98362793 26.5511685 210.13828491 18.6875 202.3125 C17.8477916 201.48069214 17.8477916 201.48069214 16.99111938 200.63208008 C9.85434455 193.54721524 3.23667813 186.2811522 -3 178.375 C-4.01240591 177.14318057 -5.02763351 175.91366949 -6.046875 174.6875 C-13.42761274 165.68676306 -20.08344062 156.28133556 -26.52636719 146.59082031 C-27.8548326 144.59328021 -29.1957609 142.60475845 -30.5390625 140.6171875 C-41.77118056 123.80440574 -50.22586429 105.30460872 -54 85.375 C-54.18304688 84.43398437 -54.36609375 83.49296875 -54.5546875 82.5234375 C-57.5425037 61.39905277 -52.49123873 39.87303705 -40.30078125 22.40234375 C-29.21314791 7.81335251 -18.79936431 0.02526796 0 0 Z " fill="#F9F9F9" transform="translate(162,116.625)"/>
</svg>
